<svg xmlns="http://www.w3.org/2000/svg" viewBox="0 0 52.11 37.22"><defs><style>.cls-1{fill:#353553;}.cls-2{fill:#fff;fill-rule:evenodd;}</style></defs><g id="Layer_2" data-name="Layer 2"><g id="Layer_1-2" data-name="Layer 1"><rect class="cls-1" width="52.11" height="37.22" rx="1.86"/><path class="cls-2" d="M26.1,18.83l-5.86,5.3a.82.82,0,1,1-1.1-1.22l7-6.3L33,22.92a.82.82,0,0,1-1.11,1.21Z"/><path class="cls-2" d="M30.27,15.17,29,16.36a.83.83,0,0,1-1.16-.06.81.81,0,0,1,.06-1.16L30.29,13l7.81,7.19a.8.8,0,0,1,0,1.15.81.81,0,0,1-1.16.05Z"/><path class="cls-2" d="M21.84,15.17l-6.72,6.18A.81.81,0,0,1,14,21.3a.8.8,0,0,1,0-1.15L21.82,13l2.44,2.18a.81.81,0,0,1,.06,1.16.83.83,0,0,1-1.16.06Z"/></g></g></svg>